solid AssimpScene
 facet normal 0 -1 0
  outer loop
  vertex 0 0 0
  vertex 0.25 0 0
  vertex 0.25 0 4
  endloop
 endfacet

 facet normal 1 0 0
  outer loop
  vertex 0.25 0 0
  vertex 0.25 2.25 0
  vertex 0.25 2.25 4
  endloop
 endfacet

 facet normal 0 1 0
  outer loop
  vertex 0.25 2.25 0
  vertex 0 2.25 0
  vertex 0 2.25 4
  endloop
 endfacet

 facet normal -1 0 0
  outer loop
  vertex 0 2.25 0
  vertex 0 0 0
  vertex 0 0 4
  endloop
 endfacet

 facet normal 0 0 -1
  outer loop
  vertex 0.25 0 0
  vertex 0 0 0
  vertex 0 2.25 0
  endloop
 endfacet

 facet normal 0 0 -1
  outer loop
  vertex 0 2.25 0
  vertex 0.25 2.25 0
  vertex 0.25 0 0
  endloop
 endfacet

 facet normal 0 0 1
  outer loop
  vertex 0.25 0 4
  vertex 0 2.25 4
  vertex 0 0 4
  endloop
 endfacet

 facet normal 0 0 1
  outer loop
  vertex 0 2.25 4
  vertex 0.25 0 4
  vertex 0.25 2.25 4
  endloop
 endfacet

 facet normal 0 -1 0
  outer loop
  vertex 0 0 0
  vertex 0.25 0 4
  vertex 0 0 4
  endloop
 endfacet

 facet normal 1 0 0
  outer loop
  vertex 0.25 0 0
  vertex 0.25 2.25 4
  vertex 0.25 0 4
  endloop
 endfacet

 facet normal 0 1 0
  outer loop
  vertex 0.25 2.25 0
  vertex 0 2.25 4
  vertex 0.25 2.25 4
  endloop
 endfacet

 facet normal -1 0 0
  outer loop
  vertex 0 2.25 0
  vertex 0 0 4
  vertex 0 2.25 4
  endloop
 endfacet

endsolid AssimpScene
